<svg width="24" height="19" viewBox="0 0 24 19" fill="none" xmlns="http://www.w3.org/2000/svg">
<path d="M24 5.45818V5.59636C23.9551 7.85333 23.5056 9.69576 22.6517 11.1236C20.5843 14.44 18.8315 16.7891 17.3933 18.1709C16.9888 18.5855 16.5618 18.7927 16.1124 18.7927H16.0449C15.6405 18.7927 15.2809 18.6315 14.9663 18.3091C14.6966 18.0327 14.5618 17.8255 14.5618 17.6873C14.5618 17.5491 14.6067 17.4339 14.6966 17.3418C16.2697 14.7624 17.2809 12.6206 17.7303 10.9164C16.2921 10.9164 15.191 10.3867 14.427 9.32727C13.6629 8.22182 13.2809 6.93212 13.2809 5.45818C13.2809 3.93818 13.7978 2.64848 14.8315 1.58909C15.9101 0.529697 17.191 0 18.6742 0C20.1573 0 21.4157 0.529697 22.4494 1.58909C23.4831 2.64848 24 3.93818 24 5.45818ZM10.7191 5.66545V5.80363C10.6742 8.06061 10.2247 9.90303 9.37079 11.3309C7.30337 14.6473 5.55056 16.9964 4.11236 18.3782C3.70787 18.7927 3.2809 19 2.83146 19H2.76405C2.35955 19 2 18.8618 1.68539 18.5855C1.41573 18.263 1.2809 18.0327 1.2809 17.8945C1.2809 17.7564 1.32584 17.6412 1.41573 17.5491C2.98876 14.9697 4 12.8279 4.44944 11.1236C3.01124 11.1236 1.91011 10.5709 1.14607 9.46545C0.382023 8.40606 0 7.11636 0 5.59636C0 4.12243 0.516854 2.85576 1.55056 1.79636C2.62921 0.736971 3.91011 0.207274 5.39326 0.207274C6.8764 0.207274 8.13483 0.736971 9.16854 1.79636C10.2022 2.85576 10.7191 4.14546 10.7191 5.66545Z" fill="#183132"/>
</svg>
