<svg width="40" height="40" viewBox="0 0 40 40" fill="none" xmlns="http://www.w3.org/2000/svg">
<path d="M3.33301 17.5002V14.1668C3.33301 9.6335 6.06634 6.46683 10.3163 5.9335C10.7497 5.86683 11.1997 5.8335 11.6663 5.8335H26.6663C27.0997 5.8335 27.5163 5.85015 27.9163 5.91681C32.2163 6.41681 34.9997 9.60016 34.9997 14.1668V16.5835H31.533C30.5997 16.5835 29.7497 16.9502 29.133 17.5835C28.433 18.2668 28.033 19.2502 28.133 20.3002C28.283 22.1002 29.933 23.4168 31.733 23.4168H34.9997V25.8335C34.9997 30.8335 31.6663 34.1668 26.6663 34.1668H22.4997M17.9157 28.1V31.4833C17.9157 34.35 15.2491 36.6667 11.9657 36.6667C8.68239 36.6667 5.99902 34.35 5.99902 31.4833V28.1C5.99902 30.9667 8.66572 33 11.9657 33C15.2491 33 17.9157 30.95 17.9157 28.1ZM17.916 23.5163C17.916 24.3497 17.6827 25.1163 17.2827 25.783C16.2994 27.3997 14.2827 28.4163 11.9493 28.4163C9.61601 28.4163 7.59932 27.383 6.61599 25.783C6.21599 25.1163 5.98274 24.3497 5.98274 23.5163C5.98274 22.083 6.64937 20.7997 7.71604 19.8663C8.79937 18.9163 10.2827 18.3498 11.9327 18.3498C13.5827 18.3498 15.066 18.933 16.1494 19.8663C17.2493 20.783 17.916 22.083 17.916 23.5163ZM17.9157 23.5168V28.1002C17.9157 30.9668 15.2491 33.0002 11.9657 33.0002C8.68239 33.0002 5.99902 30.9502 5.99902 28.1002V23.5168C5.99902 20.6502 8.66572 18.3335 11.9657 18.3335C13.6157 18.3335 15.0991 18.9168 16.1824 19.8502C17.2492 20.7835 17.9157 22.0835 17.9157 23.5168ZM36.6667 18.2838V21.7172C36.6667 22.6338 35.9333 23.3838 35 23.4172H31.7333C29.9333 23.4172 28.2833 22.1005 28.1333 20.3005C28.0333 19.2505 28.4333 18.2672 29.1333 17.5838C29.75 16.9505 30.6 16.5838 31.5333 16.5838H35C35.9333 16.6172 36.6667 17.3672 36.6667 18.2838Z" stroke="#183132" stroke-width="1.5" stroke-linecap="round" stroke-linejoin="round"/>
</svg>
