<svg width="40" height="40" viewBox="0 0 40 40" fill="none" xmlns="http://www.w3.org/2000/svg">
<path d="M3.33301 35.9168C2.91879 35.9168 2.58301 36.2526 2.58301 36.6668C2.58301 37.081 2.91879 37.4168 3.33301 37.4168V36.6668V35.9168ZM36.6663 37.4168C37.0806 37.4168 37.4163 37.081 37.4163 36.6668C37.4163 36.2526 37.0806 35.9168 36.6663 35.9168V36.6668V37.4168ZM5.00001 16.6172L5.75001 16.6203V16.6172H5.00001ZM6.28334 14.0007L5.82258 13.4088L5.81781 13.4126L6.28334 14.0007ZM17.95 4.91729L17.4896 4.32527L17.4893 4.3255L17.95 4.91729ZM22.05 4.91729L22.5102 4.32508L22.5065 4.32221L22.05 4.91729ZM33.7167 13.984L33.2565 14.5762L33.2571 14.5766L33.7167 13.984ZM11.6663 36.6668H10.9163C10.9163 37.081 11.2521 37.4168 11.6663 37.4168V36.6668ZM28.333 36.6668V37.4168C28.7472 37.4168 29.083 37.081 29.083 36.6668H28.333ZM17.4163 27.0835C17.4163 26.6693 17.0806 26.3335 16.6663 26.3335C16.2521 26.3335 15.9163 26.6693 15.9163 27.0835H16.6663H17.4163ZM15.9163 29.5835C15.9163 29.9977 16.2521 30.3335 16.6663 30.3335C17.0806 30.3335 17.4163 29.9977 17.4163 29.5835H16.6663H15.9163ZM17.4997 11.7502C17.0855 11.7502 16.7497 12.086 16.7497 12.5002C16.7497 12.9144 17.0855 13.2502 17.4997 13.2502V12.5002V11.7502ZM22.4997 13.2502C22.9139 13.2502 23.2497 12.9144 23.2497 12.5002C23.2497 12.086 22.9139 11.7502 22.4997 11.7502V12.5002V13.2502ZM3.33301 36.6668V37.4168H36.6663V36.6668V35.9168H3.33301V36.6668ZM4.91667 36.6673L5.66667 36.6704L5.75 16.6203L5.00001 16.6172L4.25001 16.6141L4.16668 36.6642L4.91667 36.6673ZM5.00001 16.6172H5.75001C5.75001 15.838 6.12198 15.085 6.74887 14.5887L6.28334 14.0007L5.81781 13.4126C4.8447 14.183 4.25001 15.3631 4.25001 16.6172H5.00001ZM6.28334 14.0007L6.74409 14.5924L18.4108 5.50907L17.95 4.91729L17.4893 4.3255L5.82259 13.4089L6.28334 14.0007ZM17.95 4.91729L18.4105 5.5093C19.3378 4.78805 20.6442 4.78416 21.5935 5.51236L22.05 4.91729L22.5065 4.32221C21.0224 3.18375 18.9622 3.17985 17.4896 4.32527L17.95 4.91729ZM22.05 4.91729L21.5898 5.50948L33.2565 14.5762L33.7167 13.984L34.1769 13.3918L22.5102 4.32509L22.05 4.91729ZM33.7167 13.984L33.2571 14.5766C33.8878 15.0658 34.25 15.8122 34.25 16.6172H35H35.75C35.75 15.3555 35.1789 14.1688 34.1763 13.3913L33.7167 13.984ZM35 16.6172H34.25V36.6673H35H35.75V16.6172H35ZM25.833 18.3335V17.5835H14.1663V18.3335V19.0835H25.833V18.3335ZM14.1663 18.3335V17.5835C12.3688 17.5835 10.9163 19.036 10.9163 20.8335H11.6663H12.4163C12.4163 19.8644 13.1972 19.0835 14.1663 19.0835V18.3335ZM11.6663 20.8335H10.9163V36.6668H11.6663H12.4163V20.8335H11.6663ZM11.6663 36.6668V37.4168H28.333V36.6668V35.9168H11.6663V36.6668ZM28.333 36.6668H29.083V20.8335H28.333H27.583V36.6668H28.333ZM28.333 20.8335H29.083C29.083 19.036 27.6306 17.5835 25.833 17.5835V18.3335V19.0835C26.8021 19.0835 27.583 19.8644 27.583 20.8335H28.333ZM16.6663 27.0835H15.9163V29.5835H16.6663H17.4163V27.0835H16.6663ZM17.4997 12.5002V13.2502H22.4997V12.5002V11.7502H17.4997V12.5002Z" fill="#183132"/>
</svg>
