<svg width="40" height="40" viewBox="0 0 40 40" fill="none" xmlns="http://www.w3.org/2000/svg">
<path d="M29.1667 12.7168V8.3335C29.1667 5.00016 27.5 3.3335 24.1667 3.3335H15.8333C12.5 3.3335 10.8333 5.00016 10.8333 8.3335V12.6002M7.09961 18.3667V26.65C7.09961 29.6833 7.09961 29.6833 9.96628 31.6167L17.8497 36.1667C19.033 36.85 20.9663 36.85 22.1497 36.1667L30.033 31.6167C32.8997 29.6833 32.8997 29.6833 32.8997 26.65V18.3667C32.8997 15.3334 32.8997 15.3334 30.033 13.4001L22.1497 8.85006C20.9663 8.16673 19.033 8.16673 17.8497 8.85006L9.96628 13.4001C7.09961 15.3334 7.09961 15.3334 7.09961 18.3667ZM21.0497 18.3168L21.9997 19.8002C22.1497 20.0335 22.483 20.2668 22.733 20.3335L24.433 20.7668C25.483 21.0335 25.7663 21.9335 25.083 22.7668L23.9663 24.1168C23.7997 24.3335 23.6663 24.7168 23.683 24.9835L23.783 26.7335C23.8497 27.8168 23.083 28.3668 22.083 27.9668L20.4497 27.3168C20.1997 27.2168 19.783 27.2168 19.533 27.3168L17.8997 27.9668C16.8997 28.3668 16.133 27.8002 16.1996 26.7335L16.2996 24.9835C16.3163 24.7168 16.183 24.3168 16.0163 24.1168L14.8996 22.7668C14.2163 21.9335 14.4996 21.0335 15.5496 20.7668L17.2497 20.3335C17.5163 20.2668 17.8497 20.0168 17.983 19.8002L18.933 18.3168C19.533 17.4168 20.4663 17.4168 21.0497 18.3168Z" stroke="#183132" stroke-width="1.5" stroke-linecap="round" stroke-linejoin="round"/>
</svg>
